<svg id="Layer_3" data-name="Layer 3" xmlns="http://www.w3.org/2000/svg" xmlns:xlink="http://www.w3.org/1999/xlink" viewBox="0 0 13.94913 24.71852"><defs><style>.cls-1{fill:url(#radial-gradient);}.cls-2{fill:url(#radial-gradient-2);}</style><radialGradient id="radial-gradient" cx="7.87416" cy="7.65082" r="0" gradientTransform="translate(0 -0.189)" gradientUnits="userSpaceOnUse"><stop offset="0" stop-color="#008b8b"/><stop offset="0.47877" stop-color="#00a79d"/><stop offset="1" stop-color="#00a79d"/></radialGradient><radialGradient id="radial-gradient-2" cx="7.4967" cy="12.3535" r="10.03484" gradientTransform="matrix(1, 0, 0, 1, 0, 0)" xlink:href="#radial-gradient"/></defs><path class="cls-1" d="M7.87416,7.46182" transform="translate(-0.52214 0.00576)"/><path class="cls-2" d="M3.92,6.94069C4.74264,6.76026,5.911,8.5946,5.911,8.5946l-.31-8.60036L7.12711,9.57192c-3.08788,1.96966.36959,4.10472.36959,4.10472s3.45748-2.13506.38152-4.10472L9.39235-.00576,9.09429,8.5946s1.18032-1.84937,1.991-1.65391c0,0-1.28761-.8871.09538-1.96967a1.432,1.432,0,0,0,.918,2.01478s-3.86283,2.30044-1.29953,5.60827a5.31422,5.31422,0,0,0,1.78835-2.4508,5.55474,5.55474,0,0,1,1.34722-2.36059,9.70252,9.70252,0,0,0-.81072,3.20258,4.74325,4.74325,0,0,1-.96571,2.48088,3.24829,3.24829,0,0,0,2.301-2.02981c-.04769.45107-.51266,4.14983-1.94334,5.57821a5.2513,5.2513,0,0,0,1.95527-.96228s-.92995,2.73648-2.921,2.69137a1.82975,1.82975,0,0,0-1.04916,1.89449,5.08749,5.08749,0,0,1-.89418-2.12s1.9195-1.06753,1.56183-4.70614c0,0-3.12365,1.78923-3.12365,3.65365a1.855,1.855,0,0,0,1.64528-.97732A12.49644,12.49644,0,0,1,8.367,20.63812c-.92994,1.44342.66765,2.25534,1.0134,1.72909A7.21161,7.21161,0,0,1,7.4967,24.71277a7.2925,7.2925,0,0,1-1.8718-2.34556c.34574.52625,1.93141-.28567,1.00147-1.72909a12.68473,12.68473,0,0,1-1.31145-4.14983,1.855,1.855,0,0,0,1.64528.97732c0-1.86442-3.12365-3.65365-3.12365-3.65365-.35767,3.63861,1.56182,4.70614,1.56182,4.70614a5.27736,5.27736,0,0,1-.89417,2.12A1.82977,1.82977,0,0,0,3.455,18.74363C1.45208,18.78874.52214,16.05226.52214,16.05226a5.27684,5.27684,0,0,0,1.96718.96228C1.05864,15.58616.58175,11.8874.53406,11.43633A3.27566,3.27566,0,0,0,2.847,13.46614a4.82942,4.82942,0,0,1-.97763-2.48088,9.74222,9.74222,0,0,0-.79879-3.20258,5.576,5.576,0,0,1,1.3353,2.36059,5.40044,5.40044,0,0,0,1.78835,2.4508C6.76944,9.28624,2.90661,6.9858,2.90661,6.9858A1.42332,1.42332,0,0,0,3.8127,4.971C5.148,6.00848,4.00346,6.86551,3.92,6.94069Z" transform="translate(-0.52214 0.00576)"/></svg>